<svg id="Layer_1" data-name="Layer 1" xmlns="http://www.w3.org/2000/svg" width="64" height="64" viewBox="0 0 64 64"><defs><style>.cls-1{fill:#666;}</style></defs><title>iphone_send</title><path class="cls-1" d="M12,60H36a4,4,0,0,0,4-4V37a1,1,0,0,0-2,0V50H10V14H38V25a1,1,0,1,0,2,0V8a4,4,0,0,0-4-4H12A4,4,0,0,0,8,8V56A4,4,0,0,0,12,60Zm26-8v4a2,2,0,0,1-2,2H12a2,2,0,0,1-2-2V52H38ZM12,6H36a2,2,0,0,1,2,2v4H10V8A2,2,0,0,1,12,6Z"/><path class="cls-1" d="M23,10h6a1,1,0,1,0,0-2H23A1,1,0,0,0,23,10Z"/><path class="cls-1" d="M19,10a1,1,0,0,0,.71-1.71,1,1,0,0,0-1.42,1.42A1.05,1.05,0,0,0,19,10Z"/><path class="cls-1" d="M23,56h2a1,1,0,0,0,0-2H23A1,1,0,0,0,23,56Z"/><path class="cls-1" d="M46.29,39.71a1,1,0,0,0,1.42,0l8-8a1,1,0,0,0,.22-0.33,1,1,0,0,0-.22-1.09l-8-8A1,1,0,1,0,46.3,23.7L52.59,30H25a1,1,0,0,0,0,2H52.59L46.3,38.29A1,1,0,0,0,46.29,39.71Z"/></svg>