<?xml version="1.0" encoding="UTF-8"?>
<svg width="24px" height="24px" viewBox="0 0 24 24" version="1.1" xmlns="http://www.w3.org/2000/svg" xmlns:xlink="http://www.w3.org/1999/xlink">
    <!-- Generator: Sketch 48.2 (47327) - http://www.bohemiancoding.com/sketch -->
    <title>Icon</title>
    <desc>Created with Sketch.</desc>
    <defs></defs>
    <g id="iPhone-X" stroke="none" stroke-width="1" fill="none" fill-rule="evenodd" transform="translate(-83.000000, -151.000000)">
        <path d="M94.9762057,157.961577 C97.76912,157.961577 100.033349,160.225806 100.033349,163.01872 C100.033349,165.811634 97.76912,168.075863 94.9762057,168.075863 C92.1832914,168.075863 89.9190629,165.811634 89.9190629,163.01872 C89.9190629,160.225806 92.1832914,157.961577 94.9762057,157.961577 Z M87.2421714,154.514971 L89.7477714,157.019886 C89.948,157.2208 89.948,157.546514 89.7477714,157.747429 C89.5468571,157.948343 89.2211429,157.948343 89.0202286,157.747429 L86.5146286,155.242514 C86.3137143,155.0416 86.3137143,154.715886 86.5146286,154.514971 C86.7155429,154.314057 87.0419429,154.314057 87.2421714,154.514971 Z M100.980594,168.252709 L103.485509,170.758309 C103.686423,170.959223 103.686423,171.284937 103.485509,171.485851 C103.284594,171.686766 102.95888,171.686766 102.758651,171.485851 L100.253051,168.980937 C100.052137,168.780023 100.052137,168.453623 100.253051,168.252709 C100.453966,168.05248 100.77968,168.05248 100.980594,168.252709 Z M89.0200914,168.252709 C89.2210057,168.05248 89.54672,168.05248 89.7476343,168.252709 C89.9485486,168.453623 89.9485486,168.780023 89.7476343,168.980937 L87.2420343,171.485851 C87.0418057,171.686766 86.7160914,171.686766 86.5151771,171.485851 C86.3142629,171.284937 86.3142629,170.959223 86.5151771,170.758309 L89.0200914,168.252709 Z M100.980594,157.747291 C100.77968,157.948206 100.453966,157.948206 100.253051,157.747291 C100.052137,157.546377 100.052137,157.220663 100.253051,157.019749 L102.758651,154.514834 C102.95888,154.31392 103.284594,154.31392 103.485509,154.514834 C103.686423,154.715749 103.686423,155.041463 103.485509,155.242377 L100.980594,157.747291 Z M95.0003429,155.571657 C94.7164571,155.571657 94.4860571,155.341257 94.4860571,155.057371 L94.4860571,151.514286 C94.4860571,151.2304 94.7164571,151 95.0003429,151 C95.2842286,151 95.5146286,151.2304 95.5146286,151.514286 L95.5146286,155.057371 C95.5146286,155.341257 95.2842286,155.571657 95.0003429,155.571657 Z M95.0003429,170.429029 C95.2842286,170.429029 95.5146286,170.659429 95.5146286,170.943314 L95.5146286,174.485714 C95.5146286,174.7696 95.2842286,175 95.0003429,175 C94.7164571,175 94.4860571,174.7696 94.4860571,174.485714 L94.4860571,170.943314 C94.4860571,170.659429 94.7164571,170.429029 95.0003429,170.429029 Z M87.5716571,163 C87.5716571,163.283886 87.3419429,163.514286 87.0573714,163.514286 L83.5142857,163.514286 C83.2304,163.514286 83,163.283886 83,163 C83,162.716114 83.2304,162.485714 83.5142857,162.485714 L87.0573714,162.485714 C87.3419429,162.485714 87.5716571,162.716114 87.5716571,163 Z M106.486057,162.485714 C106.769943,162.485714 107.000343,162.716114 107.000343,163 C107.000343,163.283886 106.769943,163.514286 106.486057,163.514286 L102.942971,163.514286 C102.659086,163.514286 102.428686,163.283886 102.428686,163 C102.428686,162.716114 102.659086,162.485714 102.942971,162.485714 L106.486057,162.485714 Z" id="Icon" fill="#9B9B9B"></path>
    </g>
</svg>