<svg id="Layer_1" data-name="Layer 1" xmlns="http://www.w3.org/2000/svg" width="64" height="64" viewBox="0 0 64 64"><defs><style>.cls-1{fill:#666;}</style></defs><title>mortar_board</title><path class="cls-1" d="M63.48,25.12l-31-17a1,1,0,0,0-1,0l-31,17a1,1,0,0,0,0,1.76l11,6A21.78,21.78,0,0,0,10,41v4a1,1,0,0,0,1,1,24.3,24.3,0,0,1,5,.52V57a1,1,0,0,0,2,0V47A21.45,21.45,0,0,1,31.08,57.41a1,1,0,0,0,.8.59H32a1,1,0,0,0,.89-0.54C36.47,50.5,44.37,46,53,46a1,1,0,0,0,1-1V41a21.78,21.78,0,0,0-1.54-8.08l11-6A1,1,0,0,0,63.48,25.12ZM12,44V41a19.67,19.67,0,0,1,1.33-7.1L16,35.37v9.12A25.26,25.26,0,0,0,12,44Zm40-3v3c-8.33.31-15.92,4.5-20,11a23.92,23.92,0,0,0-14-10V36.46l13.52,7.41A0.91,0.91,0,0,0,32,44a1,1,0,0,0,.48-0.12l18.19-10A19.67,19.67,0,0,1,52,41Zm-20,.86-12.79-7,13.31-8a1,1,0,1,0-1-1.71L17.18,33.73,3.08,26,32,10.14,60.92,26Z"/></svg>