<svg version="1" xmlns="http://www.w3.org/2000/svg" width="24" height="24" viewBox="0 0 24 24"><g><path d="M22 14c0-5.514-4.486-10-10-10s-10 4.486-10 10c0 3.214 1.551 6.048 3.915 7.879l-1.268 1.268c-.195.195-.195.512 0 .707.097.097.225.146.353.146s.256-.049.354-.146l1.386-1.386c1.532.955 3.325 1.532 5.26 1.532 1.935 0 3.728-.577 5.26-1.532l1.387 1.386c.097.097.225.146.353.146s.256-.049.354-.146c.195-.195.195-.512 0-.707l-1.268-1.268c2.363-1.831 3.914-4.664 3.914-7.879zm-10 9c-4.962 0-9-4.038-9-9s4.038-9 9-9 9 4.038 9 9-4.038 9-9 9zM12.5 8c-.276 0-.5.224-.5.5v5.5h-3.5c-.276 0-.5.224-.5.5s.224.5.5.5h4c.276 0 .5-.224.5-.5v-6c0-.276-.224-.5-.5-.5zM2.354 8.854c.195-.195.195-.512 0-.707-1.365-1.366-1.365-3.427 0-4.793 1.322-1.322 3.471-1.322 4.793 0 .195.195.512.195.707 0 .195-.195.195-.512 0-.707-1.699-1.7-4.508-1.7-6.207 0-1.768 1.77-1.768 4.438 0 6.207.097.097.225.146.353.146s.256-.049.354-.146zM22.354 2.646c-1.699-1.7-4.508-1.7-6.207 0-.195.195-.195.512 0 .707.195.195.512.195.707 0 1.322-1.322 3.471-1.322 4.793 0 1.365 1.366 1.365 3.427 0 4.793-.195.195-.195.512 0 .707.097.098.225.147.353.147s.256-.049.354-.146c1.768-1.77 1.768-4.438 0-6.208z"/></g></svg>